<svg width="40" height="40" viewBox="0 0 40 40" fill="none" xmlns="http://www.w3.org/2000/svg">
<path d="M3 10.195C3 9.38885 3.23799 8.60133 3.68305 7.93472L3.94604 7.54081C4.98238 5.98858 7.03238 5.5379 8.60509 6.51654L23.0892 17.1509C24.1035 17.8956 24.7046 19.0915 24.7046 20.3651C24.7046 21.6639 24.0795 22.8803 23.0318 23.6206L18.1415 27.076C17.0775 27.8278 15.6175 27.5658 14.8699 26.489C14.1067 25.3898 14.3788 23.8667 15.473 23.1117L18.6857 20.895C19.0169 20.6664 19.0214 20.1711 18.6944 19.9365L8.64682 12.7265C8.2679 12.4546 7.74545 12.7307 7.74545 13.2027V30.2134C7.74545 30.9963 7.3731 31.7306 6.74635 32.1839L4.48111 33.8219C3.85998 34.2711 3 33.8188 3 33.0429V10.195Z" fill="#222452"/>
<path d="M19.3223 10.3872C18.2649 9.61156 18.019 8.11276 18.7713 7.02908C19.5324 5.93294 21.0244 5.67806 22.0949 6.46132L36.2859 16.8444C37.362 17.6318 38 18.8988 38 20.2483C38 21.5524 37.404 22.7822 36.3875 23.5753L24.3429 32.9733C23.2846 33.799 21.7666 33.5769 20.9793 32.4811C20.2184 31.422 20.4247 29.9382 21.4445 29.1358L32.1458 20.7163C32.4485 20.4781 32.4408 20.0103 32.1304 19.7826L19.3223 10.3872Z" fill="#222452"/>
</svg>
