<svg width="20" height="20" viewBox="0 0 20 20" fill="none" xmlns="http://www.w3.org/2000/svg">
<path d="M3 5.79785C3 5.45236 3.10199 5.11486 3.29274 4.82916L3.40545 4.66035C3.84959 3.99511 4.72816 3.80196 5.40218 4.22137L11.6096 8.77895C12.0444 9.09812 12.302 9.61066 12.302 10.1565C12.302 10.7131 12.0341 11.2344 11.585 11.5517L9.48922 13.0326C9.03324 13.3548 8.40751 13.2425 8.08709 12.781C7.76004 12.3099 7.87662 11.6572 8.34559 11.3336L9.72245 10.3836C9.86439 10.2856 9.8663 10.0733 9.72615 9.97277L5.42006 6.8828C5.25767 6.76627 5.03377 6.88457 5.03377 7.08689V14.3772C5.03377 14.7127 4.87419 15.0274 4.60558 15.2217L3.63476 15.9237C3.36856 16.1162 3 15.9223 3 15.5898V5.79785Z" fill="#6C707E"/>
<path d="M9.99527 5.88024C9.54209 5.54781 9.4367 4.90547 9.75914 4.44103C10.0853 3.97126 10.7247 3.86203 11.1835 4.19771L17.2654 8.64762C17.7266 8.98506 18 9.52804 18 10.1064C18 10.6653 17.7446 11.1924 17.3089 11.5323L12.147 15.56C11.6934 15.9139 11.0428 15.8187 10.7054 15.3491C10.3793 14.8951 10.4677 14.2592 10.9048 13.9154L15.4911 10.307C15.6208 10.2049 15.6175 10.0044 15.4845 9.90682L9.99527 5.88024Z" fill="#6C707E"/>
</svg>
